<?xml version="1.0" encoding="UTF-8" standalone="no"?>
<!-- Created with Inkscape (http://www.inkscape.org/) -->

<svg
   width="2017.4319"
   height="2036.54"
   viewBox="0 0 533.77885 538.83449"
   version="1.1"
   id="svg1"
   xmlns:xlink="http://www.w3.org/1999/xlink"
   xmlns="http://www.w3.org/2000/svg"
   xmlns:svg="http://www.w3.org/2000/svg">
  <defs
     id="defs1">
    <linearGradient
       id="swatch12">
      <stop
         style="stop-color:#000000;stop-opacity:1;"
         offset="0"
         id="stop12" />
    </linearGradient>
    <linearGradient
       id="swatch11">
      <stop
         style="stop-color:#000000;stop-opacity:1;"
         offset="0"
         id="stop11" />
    </linearGradient>
    <linearGradient
       id="swatch5">
      <stop
         style="stop-color:#000000;stop-opacity:1;"
         offset="0"
         id="stop5" />
    </linearGradient>
    <rect
       x="494.25577"
       y="692.5166"
       width="2133.3979"
       height="1689.4054"
       id="rect1" />
    <linearGradient
       xlink:href="#swatch11"
       id="linearGradient11"
       x1="690.62024"
       y1="1404.7775"
       x2="1437.8678"
       y2="1404.7775"
       gradientUnits="userSpaceOnUse" />
    <linearGradient
       xlink:href="#swatch11"
       id="linearGradient15"
       gradientUnits="userSpaceOnUse"
       x1="690.62024"
       y1="1404.7775"
       x2="1437.8678"
       y2="1404.7775" />
    <linearGradient
       xlink:href="#swatch11"
       id="linearGradient16"
       gradientUnits="userSpaceOnUse"
       x1="690.62024"
       y1="1404.7775"
       x2="1437.8678"
       y2="1404.7775" />
    <linearGradient
       xlink:href="#swatch11"
       id="linearGradient17"
       gradientUnits="userSpaceOnUse"
       x1="690.62024"
       y1="1404.7775"
       x2="1437.8678"
       y2="1404.7775" />
  </defs>
  <g
     id="layer1"
     transform="translate(-4.715467,-2.5136168)">
    <g
       id="text1"
       transform="matrix(0.71336591,0,0,0.64483617,-487.59361,-633.90834)"
       style="fill:#ffffff;fill-opacity:1;stroke:url(#linearGradient11)">
      <g
         id="path4"
         style="stroke:url(#linearGradient16)">
        <path
           style="color:#000000;-inkscape-font-specification:'Helvetica Rounded';stroke:none;stroke-linecap:round;stroke-linejoin:round;stroke-miterlimit:6.1;-inkscape-stroke:none"
           d="m 1380.4277,1480.7188 q 48.9844,35.625 48.9844,89.0625 4.4531,26.7187 -8.9062,40.0781 -22.2657,44.5312 -80.1563,44.5312 -31.1719,0 -53.4375,-13.3593 -35.625,-22.2657 -71.25,-75.7032 -22.2656,-35.625 -57.8906,-71.25 -35.625,-40.0781 -66.7969,-57.8906 l -13.3594,-8.9062 v 13.3593 q 0,31.1719 13.3594,80.1563 17.8125,66.7969 31.1719,84.6094 35.625,66.7968 35.625,111.3281 0,35.625 -26.7188,66.7969 -26.7187,31.1718 -66.7968,31.1718 -40.0782,0 -66.79692,-31.1718 -26.71875,-31.1719 -26.71875,-66.7969 0,-44.5313 31.17187,-102.4219 17.8125,-31.1719 31.1719,-84.6094 17.8125,-53.4375 17.8125,-89.0625 v -13.3593 l -13.3594,8.9062 q -26.7187,22.2656 -66.79687,57.8906 -35.625,35.625 -53.4375,66.7969 -35.625,57.8906 -71.25,75.7031 -26.71875,17.8125 -57.89062,17.8125 -53.4375,0 -80.15625,-44.5312 -13.35938,-22.2656 -8.90625,-53.4375 8.90625,-48.9844 48.98437,-75.7031 40.07813,-22.2657 106.875,-26.7188 26.71875,0 89.0625,-13.3594 53.4375,-8.9062 80.15622,-26.7187 l 13.3594,-8.9063 -13.3594,-8.9062 q -26.71872,-13.3594 -75.70309,-26.7188 -53.4375,-13.3593 -93.51563,-13.3593 -66.79687,0 -111.32812,-31.1719 -40.07813,-26.7188 -44.53125,-75.7031 0,-26.7188 8.90625,-48.9844 26.71875,-44.5313 80.15625,-44.5313 31.17187,0 53.4375,13.3594 40.07812,22.2656 75.70312,80.1563 22.26563,31.1718 53.4375,66.7968 40.07817,44.5313 66.79687,57.8907 l 13.3594,8.9062 v -17.8125 q 0,-31.1719 -13.3594,-75.7031 -8.9062,-35.625 -31.1719,-84.6094 -35.62497,-71.25 -35.62497,-111.3281 0,-35.625 26.71875,-66.7969 31.17192,-35.625 75.70312,-31.17188 35.625,4.45313 62.3438,35.62498 22.2656,26.7188 22.2656,62.3438 0,44.5312 -31.1719,102.4219 -17.8125,35.625 -31.1719,80.1562 -17.8125,62.3438 -17.8125,89.0625 v 17.8125 l 13.3594,-8.9062 q 31.1719,-17.8125 66.7969,-57.8907 35.625,-40.0781 53.4375,-66.7968 35.625,-57.8907 75.7031,-80.1563 26.7188,-13.3594 53.4375,-13.3594 53.4375,0 80.1563,44.5313 13.3593,22.2656 8.9062,48.9844 -4.4531,48.9843 -44.5312,75.7031 -48.9844,31.1719 -111.3282,31.1719 -31.1718,4.4531 -84.6093,13.3593 -57.8907,17.8125 -84.6094,26.7188 l -13.3594,8.9062 13.3594,8.9063 q 26.7187,17.8125 84.6094,26.7187 53.4375,13.3594 84.6093,13.3594 71.25,4.4531 106.875,26.7188 z"
           id="path14" />
        <path
           style="color:#000000;-inkscape-font-specification:'Helvetica Rounded';fill:url(#linearGradient15);stroke:none;stroke-linecap:round;stroke-linejoin:round;stroke-miterlimit:6.1;-inkscape-stroke:none"
           d="m 1062.2324,994.3418 c -25.1373,0.33291 -46.8928,10.9624 -65.15037,31.8281 a 0.50005,0.50005 0 0 0 -0.002,0 c -17.87373,20.8527 -26.83985,43.2481 -26.83985,67.1231 0,26.8668 11.91101,64.0173 35.67782,111.5508 14.8312,32.6305 25.209,60.8046 31.1347,84.5078 a 0.50005,0.50005 0 0 0 0.01,0.023 c 8.897,29.6567 13.3379,54.8488 13.3379,75.5586 v 16.8789 l -12.582,-8.3887 a 0.50005,0.50005 0 0 0 -0.055,-0.031 c -17.7032,-8.8516 -39.9501,-28.1124 -66.64852,-57.7774 h 0.006 c -20.76991,-23.737 -38.57149,-45.9875 -53.40235,-66.75 -0.002,0 -0.004,-0.01 -0.006,-0.01 -23.77333,-38.6241 -49.04975,-65.4041 -75.86718,-80.3027 -14.92902,-8.9532 -32.83399,-13.4219 -53.67969,-13.4219 -35.76385,0 -62.69779,14.9599 -80.58594,44.7735 a 0.50005,0.50005 0 0 0 -0.0352,0.072 c -5.96311,14.9078 -8.94141,31.3019 -8.94141,49.17 a 0.50005,0.50005 0 0 0 0.002,0.045 c 2.98025,32.7827 17.923,58.1882 44.75196,76.0742 29.78213,20.8442 67.00113,31.2558 111.60546,31.2559 26.66318,0 57.7981,4.4446 93.39454,13.3437 32.62304,8.8976 57.82203,17.796 75.58203,26.6738 l 12.7012,8.4668 -12.7363,8.4903 c -17.7165,11.8109 -44.37602,20.7098 -79.961,26.6406 a 0.50005,0.50005 0 0 0 -0.0234,0.01 c -41.54815,8.9032 -71.22789,13.3477 -88.95704,13.3477 a 0.50005,0.50005 0 0 0 -0.0332,0 c -44.57977,2.9719 -80.27454,11.8851 -107.08398,26.7793 a 0.50005,0.50005 0 0 0 -0.0352,0.021 c -26.82184,17.8812 -43.24097,43.259 -49.19922,76.0293 a 0.50005,0.50005 0 0 0 -0.002,0.02 c -2.98101,20.867 -10e-4,38.8126 8.9707,53.7656 17.88815,29.8135 44.82209,44.7734 80.58594,44.7734 20.87592,0 40.27925,-5.9723 58.16601,-17.8965 h 0.002 c 23.86575,-11.9533 47.63963,-37.2493 71.39844,-75.8574 a 0.50005,0.50005 0 0 0 0.008,-0.014 c 11.84378,-20.7266 29.62767,-42.9611 53.35351,-66.6875 10e-4,0 0.003,0 0.004,0 26.69951,-23.7325 48.95114,-43.0149 66.75004,-57.8476 l 12.5527,-8.3692 v 12.4258 c 0,23.6667 -5.9227,53.311 -17.7871,88.9043 a 0.50005,0.50005 0 0 0 -0.01,0.037 c -8.8991,35.5965 -19.2804,63.7613 -31.1211,84.4825 a 0.50005,0.50005 0 0 0 -0.01,0.012 c -20.80663,38.6408 -31.23246,72.854 -31.23246,102.6582 0,23.875 8.96612,46.2703 26.83985,67.123 17.89281,20.875 40.32741,31.3457 67.17581,31.3457 26.8483,0 49.2829,-10.4707 67.1757,-31.3457 17.8738,-20.8527 26.8399,-43.248 26.8399,-67.123 0,-29.8209 -11.9119,-66.9907 -35.6836,-111.5625 a 0.50005,0.50005 0 0 0 -0.041,-0.066 c -8.7903,-11.7204 -19.22,-39.9257 -31.0899,-84.4375 -8.8991,-32.6302 -13.3418,-59.3156 -13.3418,-80.0254 v -12.4258 l 12.5821,8.3887 a 0.50005,0.50005 0 0 0 0.029,0.018 c 20.7122,11.8355 42.9455,31.097 66.6718,57.7891 a 0.50005,0.50005 0 0 0 0.02,0.021 c 23.7278,23.7279 43.0004,47.4503 57.8203,71.1622 a 0.50005,0.50005 0 0 0 0.01,0.012 c 23.7749,35.6623 47.5615,60.9502 71.4004,75.8496 a 0.50005,0.50005 0 0 0 0.01,0.01 c 14.932,8.9592 32.8426,13.4297 53.6953,13.4297 38.6895,0 65.6336,-14.9456 80.5625,-44.7383 8.9964,-9.0409 11.9696,-22.5774 8.9961,-40.4375 -0.021,-35.7476 -16.4538,-65.5955 -49.1855,-89.4003 a 0.50005,0.50005 0 0 0 -0.029,-0.02 c -23.8644,-14.9152 -59.5629,-23.8233 -107.1094,-26.7949 a 0.50005,0.50005 0 0 0 -0.031,0 c -20.7097,0 -48.8855,-4.443 -84.4882,-13.3437 a 0.50005,0.50005 0 0 0 -0.045,-0.01 c -38.5556,-5.9316 -66.7024,-14.8368 -84.4082,-26.6406 l -12.7363,-8.4903 12.6758,-8.4511 c 17.7992,-5.9325 45.9635,-14.8249 84.5039,-26.6836 35.593,-5.932 63.7737,-10.3848 84.5391,-13.3516 41.629,-0.01 78.8282,-10.4222 111.5546,-31.248 a 0.50005,0.50005 0 0 0 0.01,-0.01 c 26.8289,-17.886 41.7717,-43.2915 44.752,-76.0742 2.9753,-17.9003 -0.017,-34.3571 -8.9747,-49.2871 -17.8881,-29.8136 -44.822,-44.7735 -80.5859,-44.7735 -17.8958,0 -35.788,4.4761 -53.6601,13.4121 a 0.50005,0.50005 0 0 0 -0.02,0.01 c -26.8245,14.9025 -52.1079,41.6914 -75.8867,80.332 -11.8537,17.7781 -29.6502,40.0253 -53.3848,66.7266 -23.7263,26.6921 -45.9596,45.9535 -66.6718,57.7891 a 0.50005,0.50005 0 0 0 -0.029,0.017 l -12.5821,8.3887 v -16.8789 c 0,-17.7001 5.9228,-47.378 17.7911,-88.918 v -0.01 c 8.8987,-29.6608 19.2796,-56.3503 31.1387,-80.0683 l -0.01,0.012 c 20.8066,-38.6409 31.2324,-72.8541 31.2324,-102.6582 0,-23.8542 -7.4672,-44.7676 -22.3809,-62.6641 a 0.50005,0.50005 0 0 0 -0.01,-0.01 c -17.8764,-20.8557 -38.783,-32.81032 -62.6602,-35.79497 a 0.50005,0.50005 0 0 0 -0.014,-0.002 c -3.7287,-0.37288 -7.3874,-0.53584 -10.9785,-0.48828 z m 0.012,0.99804 c 3.5513,-0.0452 7.1736,0.11731 10.8653,0.48633 0,1.3e-4 0,-1.3e-4 0,0 23.617,2.95572 44.2684,14.75043 62.0137,35.45313 14.7702,17.7271 22.1445,38.3746 22.1445,62.0176 0,29.5707 -10.3555,63.6389 -31.1113,102.1855 a 0.50005,0.50005 0 0 0 -0.01,0.014 c -11.8899,23.7798 -22.2898,50.5235 -31.2031,80.2344 a 0.50005,0.50005 0 0 0 0,0.01 c -11.8802,41.5806 -17.8321,71.2756 -17.8321,89.1992 v 17.8125 a 0.50005,0.50005 0 0 0 0.7774,0.416 l 13.3594,-8.9062 c 20.8419,-11.9158 43.1299,-31.2416 66.8925,-57.9746 23.7592,-26.7291 41.5842,-49.0072 53.4805,-66.8516 a 0.50005,0.50005 0 0 0 0.01,-0.016 c 23.7189,-38.5433 48.9016,-65.1908 75.5117,-79.9766 0,0 0.01,0 0.01,0 17.7462,-8.8698 35.4728,-13.2969 53.1953,-13.2969 35.4861,0 61.9917,14.7277 79.7285,44.2891 8.8482,14.747 11.7916,30.9342 8.8399,48.6445 a 0.50005,0.50005 0 0 0 0,0.037 c -2.9573,32.5297 -17.7021,57.593 -44.3106,75.3321 -32.5728,20.7255 -69.5757,31.0879 -111.0508,31.0879 a 0.50005,0.50005 0 0 0 -0.07,0.01 c -20.7878,2.9697 -48.9939,7.4216 -84.6211,13.3594 a 0.50005,0.50005 0 0 0 -0.064,0.016 c -38.5955,11.8755 -66.8008,20.7825 -84.6211,26.7227 a 0.50005,0.50005 0 0 0 -0.1192,0.059 l -13.3593,8.9062 a 0.50005,0.50005 0 0 0 0,0.832 l 13.3593,8.9063 c 17.9169,11.9446 46.1725,20.8516 84.7969,26.7949 0,8e-4 0.01,0 0.014,0 35.6248,8.9039 63.8421,13.3652 84.6855,13.3652 h -0.031 c 47.4432,2.9652 82.9893,11.8661 106.625,26.6328 32.5507,23.6783 48.7656,53.1813 48.7656,88.6485 a 0.50005,0.50005 0 0 0 0.01,0.082 c 2.9531,17.7191 0,30.8738 -8.7657,39.6426 a 0.50005,0.50005 0 0 0 -0.094,0.1308 c -14.7663,29.5324 -41.2435,44.2539 -79.709,44.2539 -20.7063,0 -38.4179,-4.4329 -53.1719,-13.2832 h -0.01 c -23.656,-14.7871 -47.3639,-39.9633 -71.084,-75.541 l -0.01,-0.012 c -14.8622,-23.7772 -34.175,-47.5435 -57.9336,-71.3047 l -0.02,-0.022 c -23.7551,-26.7212 -46.037,-46.0407 -66.873,-57.9531 l -13.3594,-8.9063 a 0.50005,0.50005 0 0 0 -0.7774,0.4161 v 13.3593 c 0,20.8527 4.4636,47.6049 13.377,80.2871 11.866,44.4973 22.206,72.6773 31.2207,84.7305 23.722,44.4827 35.5586,81.5259 35.5586,111.0762 0,23.625 -8.8464,45.7609 -26.5977,66.4707 -17.732,20.6874 -39.8289,30.998 -66.4179,30.998 -26.5892,0 -48.6859,-10.3106 -66.41801,-30.998 -17.75123,-20.7098 -26.59766,-42.8457 -26.59766,-66.4707 0,-29.5678 10.35387,-63.6321 31.10547,-102.1739 l 0.01,-0.012 c 11.9024,-20.8327 22.2973,-49.0585 31.207,-84.6875 11.8855,-35.6566 17.8379,-65.3874 17.8379,-89.2207 v -13.3593 a 0.50005,0.50005 0 0 0 -0.7774,-0.4161 l -13.3593,8.9063 a 0.50005,0.50005 0 0 0 -0.043,0.031 c -17.8187,14.849 -40.08727,34.1501 -66.8086,57.9024 a 0.50005,0.50005 0 0 0 -0.0215,0.02 c -23.77207,23.7721 -41.61206,46.0677 -53.51758,66.9024 -23.72014,38.542 -47.42607,63.6974 -71.03906,75.5039 a 0.50005,0.50005 0 0 0 -0.0547,0.031 c -17.73781,11.8252 -36.92729,17.7285 -57.61328,17.7285 -35.48608,0 -61.98974,-14.7277 -79.72656,-44.289 -8.83784,-14.7298 -11.79552,-32.403 -8.84375,-53.0899 5.91552,-32.5354 22.14811,-57.6221 48.7539,-75.3652 26.61918,-14.7834 62.15693,-23.6794 106.61328,-26.6465 h 0.0332 c 17.89518,0 47.56998,-4.4623 89.11133,-13.3632 l 0.0234,-0.01 c 35.65235,-5.9441 62.42382,-14.8548 80.32812,-26.791 l 13.3594,-8.9063 a 0.50005,0.50005 0 0 0 0,-0.832 l -13.3594,-8.9062 a 0.50005,0.50005 0 0 0 -0.055,-0.031 c -17.8622,-8.9311 -43.12013,-17.8426 -75.7949,-26.7539 a 0.50005,0.50005 0 0 0 -0.01,0 c -35.65349,-8.9134 -66.86243,-13.3751 -93.63672,-13.375 -44.45342,0 -81.44976,-10.3682 -111.04101,-31.0821 a 0.50005,0.50005 0 0 0 -0.01,-0.01 c -26.60243,-17.735 -41.3447,-42.7918 -44.30664,-75.3106 0.003,-17.7316 2.95688,-33.972 8.85547,-48.7344 17.73674,-29.539 44.23239,-44.2578 79.70508,-44.2578 20.7098,0 38.42422,4.4358 53.17969,13.2891 a 0.50005,0.50005 0 0 0 0.0156,0.01 c 26.61289,14.7849 51.79842,41.4336 75.51953,79.9805 a 0.50005,0.50005 0 0 0 0.0195,0.029 c 14.85552,20.7976 32.67683,43.0759 53.4668,66.8359 a 0.50005,0.50005 0 0 0 0.006,0 c 26.71659,29.6851 48.9845,49.0077 66.8985,57.9785 l 13.3515,8.9004 a 0.50005,0.50005 0 0 0 0.7774,-0.416 v -17.8125 c 0,-20.847 -4.4644,-46.1165 -13.375,-75.8242 l -0.01,-0.024 c -5.9491,-23.7881 -16.3476,-52.0071 -31.1953,-84.6718 a 0.50005,0.50005 0 0 0 -0.01,-0.016 c -23.73323,-47.4664 -35.57231,-84.5349 -35.57231,-111.1054 0,-23.6237 8.84637,-45.758 26.59571,-66.4668 h 0.002 c 18.1091,-20.6946 39.54,-31.16987 64.4062,-31.48636 z"
           id="path15" />
      </g>
      <g
         id="path5"
         style="fill:#000000;stroke:url(#linearGradient17)">
        <path
           style="color:#000000;-inkscape-font-specification:'Helvetica Rounded';fill:#000000;stroke:none;stroke-linecap:round;stroke-linejoin:round;stroke-miterlimit:6.1;-inkscape-stroke:none"
           d="m 1062.1484,987.48437 c -26.9933,0.44586 -50.9692,12.12781 -70.2441,34.15623 -0.0164,0.019 -0.0326,0.038 -0.0488,0.057 -18.71656,21.836 -28.49609,46.0046 -28.4961,71.5996 0,28.8614 12.37501,66.5252 36.30079,114.416 14.70991,32.3656 24.93931,60.2004 30.71681,83.3105 0.028,0.1114 0.059,0.2221 0.092,0.3321 8.77,29.2334 13.0468,53.8551 13.0468,73.582 v 4.0215 l -1.8847,-1.2559 c -0.2545,-0.1699 -0.5193,-0.3239 -0.793,-0.4609 -16.1936,-8.0968 -38.1787,-26.8635 -64.58592,-56.2012 -20.60568,-23.5522 -38.23715,-45.5938 -52.88476,-66.0937 -24.08676,-39.0545 -49.93109,-66.6664 -78.08985,-82.3399 -16.12281,-9.6411 -35.33199,-14.3476 -57.11523,-14.3476 -37.67501,0 -67.55511,16.5664 -86.48438,48.1152 -0.20238,0.3377 -0.37741,0.691 -0.52343,1.0566 -6.31556,15.7889 -9.43555,33.0921 -9.43555,51.7247 3.1e-4,0.223 0.0107,0.4459 0.0312,0.6679 3.13656,34.5021 19.42344,62.2423 47.73633,81.1387 31.0932,21.7352 69.83533,32.4492 115.47265,32.4492 25.8863,0 56.4952,4.3346 91.67774,13.127 32.14955,8.7726 56.8729,17.5435 73.9238,26.0293 l 3.6719,2.4472 -4.1484,2.7657 c -16.3954,10.9302 -42.24071,19.7409 -77.27543,25.58 -0.11179,0.018 -0.22314,0.039 -0.33398,0.062 -41.35125,8.861 -70.93317,13.1953 -87.51563,13.1953 -0.16356,6e-4 -0.32706,0.01 -0.49023,0.018 -45.24804,3.0165 -81.91105,12.0432 -109.96875,27.6309 -0.17404,0.097 -0.3441,0.2002 -0.50977,0.3105 -28.24076,18.8272 -45.90856,46.1827 -52.15234,80.5235 -0.0167,0.092 -0.0317,0.1846 -0.0449,0.2773 -3.14966,22.0476 0.0106,41.8205 9.88476,58.2774 18.92927,31.5487 48.80938,48.1152 86.48438,48.1152 22.11061,0 42.92406,-6.4056 61.78711,-18.9297 25.50947,-12.9726 49.67772,-39.1631 73.63867,-78.0996 0.0421,-0.068 0.0831,-0.1361 0.12305,-0.2051 11.4053,-19.9593 28.77392,-41.7455 52.13867,-65.125 26.45969,-23.5169 48.51089,-42.6261 66.14059,-57.3242 l 1.5118,-1.0078 c -0.071,22.46 -5.7741,51.3516 -17.42,86.289 -0.06,0.1796 -0.1125,0.3614 -0.1582,0.545 -8.8009,35.2038 -19.0519,62.8423 -30.41989,82.7363 -0.0307,0.054 -0.0606,0.109 -0.0899,0.1641 -21.15573,39.2892 -32.05469,74.5103 -32.05469,105.9199 0,25.595 9.77954,49.7636 28.4961,71.5996 18.99908,22.1655 43.76828,33.75 72.40048,33.75 28.632,0 53.4013,-11.5845 72.4004,-33.75 18.7165,-21.836 28.496,-46.0046 28.496,-71.5996 0,-31.6556 -12.4237,-69.6688 -36.4941,-114.8008 -0.1778,-0.3334 -0.3808,-0.6527 -0.6074,-0.9551 -7.1941,-9.592 -18.1466,-37.8388 -29.9453,-82.084 0,-0.013 -0.01,-0.026 -0.012,-0.039 -8.7405,-32.0484 -13.0149,-58.0902 -13.0743,-77.7696 l 1.8614,1.2422 c 0.1407,0.094 0.2847,0.1834 0.4316,0.2676 19.7626,11.2929 41.5427,30.0592 64.9434,56.3848 0.096,0.1084 0.1947,0.2139 0.2968,0.3164 23.4239,23.4238 42.3595,46.7559 56.8516,69.9433 0.038,0.061 0.077,0.1217 0.1172,0.1817 24.1173,36.176 48.4159,62.203 73.4784,77.8672 0.038,0.024 0.077,0.047 0.1152,0.07 16.1467,9.6879 35.3989,14.4121 57.2345,14.4121 40.0412,0 70.0494,-16.3303 86.1719,-47.6211 10.1659,-10.8401 13.2192,-26.6623 10.2246,-45.1543 -0.2509,-37.5363 -18.1426,-69.6382 -51.9786,-94.2461 -0.1391,-0.1013 -0.2818,-0.1978 -0.4278,-0.2891 -25.4375,-15.8985 -62.1383,-24.8144 -110.326,-27.8261 -0.1535,-0.01 -0.3073,-0.015 -0.461,-0.016 -19.7268,0 -47.5229,-4.3143 -82.8203,-13.1386 -0.2199,-0.055 -0.4421,-0.1001 -0.6661,-0.1348 -38.0315,-5.851 -65.4007,-14.7392 -81.6387,-25.5644 l -4.1484,-2.7657 3.2774,-2.1855 c 17.6293,-5.8663 45.2542,-14.5935 83.0917,-26.2383 35.1624,-5.8575 63.0825,-10.2655 83.6232,-13.2031 42.5032,-0.1216 80.9115,-10.8823 114.5722,-32.3028 0.044,-0.028 0.088,-0.057 0.1308,-0.086 28.3118,-18.8745 44.6034,-46.5886 47.7696,-81.0547 3.101,-19.1653 -0.2196,-37.4193 -9.9101,-53.5703 -18.9294,-31.5488 -48.8095,-48.1152 -86.4844,-48.1152 -19.0426,0 -38.0456,4.7923 -56.7383,14.1386 -0.096,0.048 -0.19,0.098 -0.2833,0.1504 -28.2246,15.6803 -54.1247,43.3516 -78.2597,82.5137 -11.5601,17.3401 -29.1978,39.4217 -52.8125,65.9883 -23.4006,26.3257 -45.1808,45.0919 -64.9433,56.3847 -0.1469,0.084 -0.2909,0.1735 -0.4316,0.2676 l -1.8848,1.2559 v -4.0215 c 0,-16.165 5.7261,-45.7173 17.5137,-86.9824 8.7996,-29.3246 19.0419,-55.6368 30.6913,-78.9356 l -0.1034,0.1973 c 21.1556,-39.2893 32.0545,-74.5105 32.0545,-105.9199 0,-25.2875 -8.1001,-48.0166 -23.9764,-67.0684 l -0.066,-0.078 c -18.7543,-21.8799 -41.4036,-34.94107 -67.0313,-38.14454 -0.06,-0.008 -0.1209,-0.0151 -0.1816,-0.0215 -3.9745,-0.39744 -7.8919,-0.56369 -11.7481,-0.5 z m 0.1797,14.71293 c 3.2613,-0.029 6.6008,0.1316 10.0196,0.4707 21.8121,2.7526 40.6809,13.4234 57.5156,33.0468 13.7908,16.5646 20.5273,35.3857 20.5273,57.5821 0,27.9654 -9.8823,61.0255 -30.289,98.9238 -0.035,0.065 -0.07,0.131 -0.1036,0.1973 -12.095,24.19 -22.6286,51.3026 -31.6386,81.3359 -0.01,0.031 -0.018,0.063 -0.027,0.094 -11.9515,41.8302 -11.5629,66.273 -11.8726,85.7224 l -0.2526,15.8668 c 8e-4,5.8944 1.0615,10.8435 5.9662,7.5743 l 19.9432,-8.5636 c 21.6912,-12.4691 37.2029,-26.6283 61.1707,-53.5921 23.8852,-26.8709 41.8726,-49.3207 54.0625,-67.6055 0.05,-0.075 0.098,-0.1502 0.1445,-0.2266 23.2779,-37.8265 47.7492,-63.486 72.8536,-77.4804 16.8856,-8.4206 33.4636,-12.5215 50.0019,-12.5215 33.5749,0 57.1324,13.121 73.8281,40.9473 8.05,13.4167 10.6724,27.6704 7.9551,43.9746 -0.03,0.1807 -0.053,0.3625 -0.07,0.5449 -2.7966,30.7623 -16.1646,53.4618 -41.2148,70.1855 -31.4428,19.9906 -66.992,29.9766 -107.295,29.9766 -0.3489,0 -0.6975,0.025 -1.0429,0.074 -20.8786,2.9827 -49.1216,7.4438 -84.7793,13.3867 -0.3237,0.053 -0.6434,0.1285 -0.9571,0.2246 -38.6191,11.8828 -57.3935,22.3705 -75.3227,28.3469 -0.6223,0.2077 -10.9884,4.221 -11.5341,4.5851 l -7.21,4.1084 c -4.381,2.9217 -3.5905,10.2291 0.7905,13.1508 l 6.6137,4.1697 c 22.9116,14.4453 48.3629,25.1395 87.2955,31.1626 35.8279,8.9444 64.3647,13.5215 86.1464,13.5215 l -0.4609,-0.016 c 46.6648,2.9166 81.1299,11.7715 103.2012,25.4864 31.0852,22.6841 45.7382,49.6385 45.7383,82.9297 4e-4,0.4064 0.034,0.812 0.1015,1.2128 2.7392,16.4352 0.031,26.7697 -6.8457,33.6465 -0.561,0.5609 -1.0279,1.2085 -1.3828,1.918 -13.6996,27.3991 -36.8533,40.4512 -73.5547,40.4512 -19.7064,0 -36.0631,-4.1774 -49.5957,-12.2852 -22.4155,-14.0305 -45.5931,-38.4531 -68.9512,-73.4902 l 0.1172,0.1816 c -15.1953,-24.3125 -34.8535,-48.4805 -58.9297,-72.5566 -23.8562,-26.7907 -49.3067,-40.0712 -70.907,-52.4881 l -6.0847,-4.5795 c -4.9047,-3.2692 -10.5915,-8.671 -10.5922,-2.7766 l 0.395,16.1368 c 0.5342,21.8276 -0.9567,44.5467 8.0542,77.5863 11.7476,44.048 21.4476,71.9265 31.8613,86.3027 23.3697,43.8558 34.6738,80.0087 34.6738,107.6934 0,21.9049 -8.0329,42.2676 -24.9414,61.9941 -16.6258,19.3968 -36.388,28.5938 -61.1933,28.5938 -24.8055,0 -44.5675,-9.197 -61.1934,-28.5938 -16.9084,-19.7265 -24.94141,-40.0892 -24.94141,-61.9941 0,-27.9655 9.88234,-61.0257 30.28911,-98.9239 l -0.09,0.1641 c 12.3507,-21.6137 22.8571,-50.3043 31.8535,-86.2226 11.9654,-35.9611 12.0787,-61.8385 12.6014,-86.7432 l 0.2969,-14.1419 c -7e-4,-5.8944 -1.9396,-4.4261 -6.8444,-1.1568 l -7.8001,5.4211 c -0.2185,0.1456 -7.5494,5.2437 -7.7512,5.4117 -17.9054,14.9211 -38.08172,24.2358 -64.83851,48.0196 -0.10836,0.096 -0.21387,0.1949 -0.31641,0.2969 -24.07613,24.0761 -42.30131,46.7836 -54.62695,68.3535 l 0.12305,-0.2051 c -23.35157,37.9463 -46.49595,62.0839 -68.26563,72.9688 -0.27362,0.137 -0.53846,0.291 -0.79297,0.4609 -16.71031,11.1402 -34.42139,16.5723 -53.79687,16.5723 -33.57493,0 -57.13242,-13.1212 -73.82813,-40.9473 -7.92142,-13.2024 -10.69569,-29.0209 -7.9375,-48.4785 5.63611,-30.7912 20.54517,-53.8018 45.55274,-70.5567 25.35491,-14.0126 59.84049,-22.7534 103.5,-25.664 l -0.49024,0.018 c 19.04251,0 48.83571,-4.572 90.60938,-13.5235 l -0.33399,0.062 c 36.21522,-6.0358 64.09253,-15.6125 82.38983,-30.0057 l 7.7964,-6.1329 c 4.381,-2.9217 2.6942,-9.555 -1.6868,-12.4766 l -6.1096,-4.3232 c -0.2545,-0.17 -7.3808,-4.6206 -7.6544,-4.7576 -18.5459,-9.273 -36.62372,-18.9734 -69.55378,-27.9544 -0.0506,-0.014 -0.10143,-0.026 -0.15235,-0.039 -36.04612,-9.0115 -67.76595,-13.5801 -95.30469,-13.5801 -43.38317,0 -78.82844,-10.0508 -107.0957,-29.8379 -0.0459,-0.032 -0.0921,-0.063 -0.13867,-0.094 -24.99962,-16.6665 -38.36434,-39.2858 -41.23047,-69.9024 0.0377,-16.628 2.79221,-31.6776 8.16797,-45.334 16.67676,-27.4707 40.13433,-40.4609 73.5,-40.4609 19.72692,0 36.0998,4.1821 49.64062,12.3066 0.0703,0.042 0.14125,0.083 0.21289,0.1231 25.15659,13.9758 49.67806,39.6709 73.00196,77.5722 0.0883,0.1438 0.1814,0.2845 0.27929,0.4219 15.01765,21.0247 32.97843,43.4698 53.88868,67.3672 0.0226,0.026 0.0454,0.052 0.0684,0.078 26.74638,29.7182 41.53065,43.094 60.82305,52.9109 l 21.288,9.4382 c 4.9047,3.2692 5.0372,-2.4061 5.0379,-8.3005 l -0.8086,-16.078 c -1.0923,-21.7187 2.0771,-41.4219 -6.8974,-71.4159 l -0.031,-0.1133 c -6.0995,-24.3579 -16.6349,-52.8781 -31.582,-85.7617 -0.037,-0.083 -0.077,-0.1648 -0.1172,-0.2461 -23.50238,-47.0049 -34.84567,-83.4953 -34.84567,-108.0273 0,-21.8921 8.02596,-42.2433 24.91407,-61.959 17.0871,-19.518 36.2908,-28.9372 59.2929,-29.1406 z"
           id="path12" />
        <path
           style="color:#000000;-inkscape-font-specification:'Helvetica Rounded';fill:#000000;stroke:none;stroke-linecap:round;stroke-linejoin:round;stroke-miterlimit:6.1;-inkscape-stroke:none"
           d="m 1062.1406,986.98437 c -27.1325,0.44816 -51.2608,12.2091 -70.61326,34.32613 a 0.49987597,0.49987597 0 0 0 -0.002,0 c -0.0177,0.021 -0.0346,0.04 -0.0508,0.059 h 0.002 c -18.77915,21.9091 -28.61717,46.2016 -28.61719,71.9239 0,29.0042 12.41173,66.7178 36.35352,114.6406 14.69693,32.339 24.91403,60.1444 30.67973,83.207 0.03,0.1201 0.063,0.2376 0.098,0.3535 8.7607,29.2022 13.0254,53.7829 13.0254,73.4375 v 3.0879 l -1.1074,-0.7383 c -0.2717,-0.1813 -0.5533,-0.3458 -0.8457,-0.4922 -16.0779,-8.0389 -38.0504,-26.7719 -64.43361,-56.082 l -0.006,-0.01 c -20.59232,-23.5372 -38.2102,-45.5652 -52.84375,-66.0449 -0.002,0 -0.004,0 -0.006,-0.01 -24.10651,-39.0791 -49.9892,-66.748 -78.24024,-82.4766 l -0.0117,-0.01 c -16.2089,-9.6892 -35.50956,-14.4121 -57.35937,-14.4121 -37.82149,0 -67.90318,16.6758 -86.91211,48.3574 -0.21608,0.3606 -0.40464,0.7366 -0.56055,1.127 h 0.002 c -6.34124,15.8531 -9.47266,33.2218 -9.47266,51.9102 3.3e-4,0.2381 0.0113,0.4758 0.0332,0.7129 3.14894,34.6325 19.53046,62.5355 47.95703,81.5078 31.18817,21.7983 70.03906,32.5332 115.75,32.5332 25.83048,0 56.40281,4.3261 91.55664,13.1113 32.11224,8.7629 56.80002,17.5236 73.79892,25.9805 l 3.0156,2.0117 -3.5235,2.3496 c -16.2968,10.8645 -42.0865,19.6717 -77.08008,25.5039 h 0.002 c -0.1206,0.019 -0.23869,0.042 -0.35547,0.066 a 0.49987597,0.49987597 0 0 0 -0.004,0 c -41.33611,8.8578 -70.91481,13.1836 -87.41016,13.1836 a 0.49987597,0.49987597 0 0 0 -0.002,0 c -0.18149,7e-4 -0.35136,0.01 -0.51172,0.018 a 0.49987597,0.49987597 0 0 0 -0.01,0 c -45.29615,3.0197 -82.03009,12.0537 -110.17774,27.6914 -0.18478,0.103 -0.36762,0.2121 -0.54492,0.3301 -28.3466,18.8978 -46.10208,46.3915 -52.36719,80.8496 -0.0178,0.098 -0.0328,0.1979 -0.0469,0.2969 -3.1622,22.1353 0.0104,42.0375 9.95117,58.6055 19.00893,31.6814 49.09062,48.3574 86.91211,48.3574 22.20712,0 43.1257,-6.4393 62.06445,-19.0137 25.61878,-13.0467 49.81623,-39.2996 73.78711,-78.2519 v 0 c 0.044,-0.071 0.0883,-0.1434 0.13086,-0.2168 11.37391,-19.9044 28.71421,-41.6599 52.05469,-65.0157 10e-4,0 0.003,0 0.004,0 26.44039,-23.4995 48.47759,-42.5941 66.09379,-57.2812 l 0.6445,-0.4297 c -0.2202,22.2463 -5.8567,50.7246 -17.334,85.1562 -0.064,0.1927 -0.1193,0.3864 -0.1679,0.5821 -8.7937,35.1749 -19.0359,62.7761 -30.3692,82.6093 -0.0338,0.06 -0.0669,0.118 -0.0976,0.1758 -21.18002,39.3349 -32.11329,74.6297 -32.11329,106.1543 0,25.7223 9.83804,50.0167 28.61719,71.9258 19.0827,22.2631 44.0123,33.9238 72.7793,33.9238 28.7668,0 53.6965,-11.6607 72.7793,-33.9238 18.779,-21.9091 28.6171,-46.2035 28.6171,-71.9258 0,-31.7864 -12.4611,-69.8634 -36.5527,-115.0352 -0.1898,-0.3558 -0.4065,-0.6966 -0.6484,-1.0195 -3.5288,-4.705 -8.0731,-14.1511 -13.1778,-27.9219 -5.1046,-13.7708 -10.7893,-31.8812 -16.6855,-53.9922 l 0.018,0.1289 c 0,-0.1346 -0.038,-0.1983 -0.045,-0.2148 -0.01,-0.016 0.013,0.01 0.027,0.1 a 0.49987597,0.49987597 0 0 0 -0.012,-0.055 c -8.6,-31.5332 -12.8211,-57.1685 -13.0059,-76.6699 l 1.0332,0.6894 c 0.15,0.1002 0.3039,0.1952 0.461,0.2852 19.6928,11.253 41.4416,29.9846 64.8183,56.2832 v 0 c 0.102,0.1152 0.2089,0.228 0.3183,0.3379 23.4018,23.4017 42.313,46.7062 56.7813,69.8555 0.04,0.064 0.082,0.1304 0.125,0.1953 24.1415,36.2121 48.4788,62.2928 73.6289,78.0117 0.046,0.029 0.088,0.053 0.123,0.074 16.2355,9.7412 35.5845,14.4844 57.4922,14.4844 40.1468,0 70.3596,-16.4201 86.5742,-47.8262 10.2622,-10.9767 13.3209,-26.9571 10.3184,-45.5156 -8e-4,0 0,-0.01 0,-0.014 -0.2761,-37.6594 -18.2664,-69.9072 -52.1777,-94.5703 v 0 c -0.148,-0.1078 -0.2994,-0.2113 -0.455,-0.3086 -25.5492,-15.9683 -62.3264,-24.8857 -110.5586,-27.9004 v 0 c -0.1636,-0.011 -0.3265,-0.016 -0.4883,-0.018 -19.6539,0 -47.4245,-4.3044 -82.6992,-13.123 -0.2344,-0.059 -0.4716,-0.1075 -0.7109,-0.1445 -37.9919,-5.8449 -65.3102,-14.7349 -81.4375,-25.4864 l -3.5254,-2.3496 2.5937,-1.7304 c 17.616,-5.8612 45.2022,-14.5766 82.9864,-26.2051 35.1305,-5.852 63.0277,-10.2577 83.5527,-13.1934 42.5709,-0.1284 81.0673,-10.9133 114.7988,-32.3789 0.048,-0.03 0.095,-0.061 0.1407,-0.092 v 0 c 28.4246,-18.9507 44.8101,-46.8275 47.9883,-81.4239 3.1082,-19.2573 -0.2364,-37.6327 -9.9805,-53.873 -19.009,-31.6816 -49.0907,-48.3574 -86.9121,-48.3574 -19.1264,0 -38.2101,4.815 -56.9629,14.1914 -0.1034,0.052 -0.2028,0.106 -0.3027,0.1621 -28.3284,15.7387 -54.2785,43.4781 -78.4414,82.6855 -11.5387,17.3059 -29.1602,39.3704 -52.7598,65.92 -23.3766,26.2987 -45.1256,45.0302 -64.8183,56.2832 -0.1576,0.09 -0.311,0.1848 -0.461,0.2851 l -1.1074,0.7383 v -3.0879 c 0,-16.0461 5.7114,-45.5976 17.4922,-86.8398 v -0.01 c 8.7896,-29.29 19.0191,-55.5659 30.6485,-78.8281 0,0 0,-0.01 0.01,-0.012 0,0 0,-0.01 0,-0.01 a 0.49987597,0.49987597 0 0 0 0,-0.01 c 21.1032,-39.2477 32.0039,-74.4731 32.0039,-105.9394 0,-25.3942 -8.1438,-48.251 -24.0918,-67.3887 l -0.064,-0.078 c -18.8188,-21.9551 -41.5877,-35.0939 -67.3438,-38.31443 v 0 c -0.064,-0.009 -0.1283,-0.0168 -0.1914,-0.0234 -3.9932,-0.3993 -7.9305,-0.56597 -11.8067,-0.50196 z m 0.016,1 c 3.8349,-0.0633 7.7329,0.10081 11.6875,0.4961 0.057,0.006 0.1134,0.0123 0.1679,0.0195 a 0.49987597,0.49987597 0 0 0 0,0.002 c 25.4977,3.18723 48.026,16.16913 66.7149,37.97263 l 0.064,0.076 v 0 c 15.8047,18.9658 23.8613,41.5673 23.8613,66.7481 0,31.2757 -10.8525,66.3999 -31.9589,105.6152 -0.012,0.023 -0.023,0.044 -0.035,0.066 v 0.01 a 0.49987597,0.49987597 0 0 0 0,0.014 c -11.6236,23.2799 -21.8451,49.5471 -30.6269,78.8125 a 0.49987597,0.49987597 0 0 0 0,0.01 c -11.7932,41.2846 -17.5332,70.8381 -17.5332,87.1211 v 4.0215 a 0.49987597,0.49987597 0 0 0 0.7773,0.416 l 1.8848,-1.2559 c 0.1314,-0.088 0.2661,-0.1701 0.4023,-0.2481 19.8323,-11.3326 41.6439,-30.1337 65.0684,-56.4863 23.6239,-26.577 41.2739,-48.6706 52.8555,-66.043 a 0.49987597,0.49987597 0 0 0 0.01,-0.016 c 24.1064,-39.1156 49.9564,-66.7177 78.0762,-82.3398 0.087,-0.049 0.1731,-0.094 0.2617,-0.1387 18.6326,-9.3163 37.5569,-14.0859 56.5156,-14.0859 37.5283,0 67.2069,16.4551 86.0567,47.8711 9.6309,16.0517 12.9277,34.174 9.8437,53.2343 a 0.49987597,0.49987597 0 0 0 0,0.033 c -3.1541,34.3349 -19.3513,61.8873 -47.5488,80.6856 -0.039,0.027 -0.078,0.053 -0.1172,0.078 -33.5794,21.3687 -71.887,32.1032 -114.3067,32.2246 a 0.49987597,0.49987597 0 0 0 -0.068,0 c -20.5472,2.9385 -48.4702,7.3472 -83.6348,13.2051 a 0.49987597,0.49987597 0 0 0 -0.064,0.016 c -37.8392,11.6453 -65.4668,20.3734 -83.1036,26.2422 a 0.49987597,0.49987597 0 0 0 -0.1191,0.059 l -3.2773,2.1855 a 0.49987597,0.49987597 0 0 0 0,0.832 l 4.1484,2.7657 c 16.3486,10.8989 43.7688,19.7855 81.8398,25.6425 0.2087,0.032 0.4157,0.074 0.6211,0.125 35.318,8.8295 63.1381,13.1538 82.9375,13.1543 0.1451,0 0.289,0 0.4317,0.014 48.1421,3.0089 84.7664,11.9235 110.0918,27.752 0.1359,0.085 0.2687,0.175 0.3985,0.2695 33.7365,24.5356 51.5235,56.4664 51.7734,93.8457 a 0.49987597,0.49987597 0 0 0 0.01,0.076 c 2.9788,18.3946 -0.062,34.0329 -10.0957,44.7324 a 0.49987597,0.49987597 0 0 0 -0.08,0.1133 c -16.0393,31.1292 -45.8213,47.3496 -85.7266,47.3496 -21.7635,0 -40.9187,-4.7053 -56.9766,-14.3399 -0.041,-0.024 -0.076,-0.046 -0.1054,-0.064 -24.9746,-15.6092 -49.2354,-41.5816 -73.3281,-77.7207 -0.037,-0.055 -0.074,-0.1109 -0.1094,-0.1679 -14.5157,-23.2252 -33.4763,-46.5837 -56.9218,-70.0293 v 0 c -0.094,-0.095 -0.1858,-0.1937 -0.2754,-0.295 -23.4246,-26.3525 -45.236,-45.1535 -65.0684,-56.4863 -0.1367,-0.078 -0.2709,-0.1622 -0.4023,-0.25 l -1.8613,-1.2422 a 0.49987597,0.49987597 0 0 0 -0.7774,0.418 c 0.06,19.7504 4.3441,45.8237 13.0918,77.8984 l -0.012,-0.055 c 0.01,0.052 0.011,0.047 0.019,0.068 a 0.49987597,0.49987597 0 0 0 0,0.023 c 5.9025,22.1342 11.5931,40.2702 16.7129,54.0821 5.1199,13.8118 9.6492,23.2868 13.3145,28.1738 0.2112,0.2819 0.4006,0.5797 0.5664,0.8906 24.0491,45.0922 36.4355,83.0397 36.4355,114.5645 0,25.4676 -9.7211,49.5124 -28.375,71.2754 -18.9153,22.0678 -43.5243,33.5742 -72.0214,33.5742 -28.4974,0 -53.1062,-11.5064 -72.02153,-33.5742 -18.65393,-21.763 -28.375,-45.8078 -28.375,-71.2754 0,-31.294 10.86358,-66.4412 31.99415,-105.6836 a 0.49987597,0.49987597 0 0 0 0.002,0 c 0.0279,-0.052 0.0564,-0.1019 0.084,-0.1504 h -0.002 c 11.40268,-19.9547 21.66258,-47.6306 30.47068,-82.8632 0.043,-0.1716 0.093,-0.3413 0.1484,-0.5079 11.6566,-34.9693 17.3741,-63.902 17.4454,-86.4453 a 0.49987597,0.49987597 0 0 0 -0.7774,-0.4179 l -1.5117,1.0078 a 0.49987597,0.49987597 0 0 0 -0.043,0.033 c -17.6359,14.7032 -39.6901,33.8148 -66.1523,57.334 a 0.49987597,0.49987597 0 0 0 -0.0215,0.02 c -23.38692,23.4017 -40.78274,45.2174 -52.21875,65.2305 -0.0367,0.063 -0.0738,0.1257 -0.11328,0.1894 a 0.49987597,0.49987597 0 0 0 -0.002,0 c -23.93474,38.8939 -48.0586,65.0088 -73.43945,77.916 a 0.49987597,0.49987597 0 0 0 -0.0488,0.029 c -18.78731,12.4738 -39.49767,18.8457 -61.51172,18.8457 -37.52844,0 -67.20511,-16.4572 -86.05469,-47.8731 -9.80748,-16.3457 -12.95743,-35.9894 -9.82031,-57.9492 0.0123,-0.086 0.0274,-0.172 0.043,-0.2578 6.22244,-34.2235 23.80264,-61.4407 51.9375,-80.1973 0.15358,-0.1022 0.31183,-0.1982 0.47461,-0.289 27.96769,-15.5377 64.55992,-24.557 109.75976,-27.5703 h -0.008 c 0.16529,-0.01 0.31974,-0.017 0.46484,-0.018 16.669,0 46.253,-4.3433 87.61719,-13.207 0.1049,-0.022 0.20952,-0.04 0.3125,-0.057 a 0.49987597,0.49987597 0 0 0 0.002,0 c 35.0758,-5.846 60.9768,-14.6623 77.4707,-25.6582 l 4.1485,-2.7657 a 0.49987597,0.49987597 0 0 0 0,-0.832 l -3.6719,-2.4473 a 0.49987597,0.49987597 0 0 0 -0.055,-0.031 c -17.1004,-8.5105 -41.84728,-17.2867 -74.01564,-26.0645 a 0.49987597,0.49987597 0 0 0 -0.01,0 c -35.21117,-8.7996 -65.85676,-13.1426 -91.79883,-13.1426 -45.55904,0 -84.18895,-10.6917 -115.18554,-32.3594 a 0.49987597,0.49987597 0 0 0 -0.01,-0.01 c -28.19861,-18.8202 -44.391,-46.3968 -47.51562,-80.7676 -0.0191,-0.2069 -0.029,-0.4151 -0.0293,-0.623 0,-18.5768 3.11052,-35.8144 9.40039,-51.5391 0.13613,-0.3408 0.2996,-0.6695 0.48828,-0.9844 18.84958,-31.416 48.52624,-47.873 86.05469,-47.873 21.71122,0 40.82517,4.6892 56.85937,14.2773 a 0.49987597,0.49987597 0 0 0 0.0137,0.01 c 28.05432,15.6154 53.84811,43.158 77.90625,82.166 a 0.49987597,0.49987597 0 0 0 0.0195,0.027 c 14.65937,20.5163 32.30163,42.5706 52.91601,66.1328 a 0.49987597,0.49987597 0 0 0 0.004,0 c 26.42854,29.3614 48.42634,48.1604 64.73434,56.3145 0.2551,0.1276 0.501,0.2712 0.7383,0.4296 l 1.8848,1.2559 a 0.49987597,0.49987597 0 0 0 0.7773,-0.416 v -4.0215 c 0,-19.7991 -4.289,-44.4601 -13.0683,-73.7246 -0.031,-0.1041 -0.06,-0.2078 -0.086,-0.3106 -5.7882,-23.1531 -16.0276,-51.0121 -30.7461,-83.3964 a 0.49987597,0.49987597 0 0 0 -0.01,-0.016 c -23.9097,-47.8586 -36.24802,-85.4748 -36.24803,-114.1933 1e-5,-25.4677 9.72107,-49.5105 28.375,-71.2735 a 0.49987597,0.49987597 0 0 0 0.002,0 c 0.0153,-0.018 0.0307,-0.034 0.0449,-0.051 h 0.002 c 19.19683,-21.9376 43.02033,-33.53887 69.87313,-33.98241 z m 0.1679,13.71293 c -23.136,0.2046 -42.5072,9.7128 -59.664,29.3105 -16.9477,19.7853 -25.03511,40.2709 -25.03511,62.2852 0,24.686 11.37858,61.2101 34.89841,108.25 0.039,0.079 0.076,0.1549 0.1075,0.2265 14.9387,32.865 25.4639,61.3622 31.5527,85.6777 a 0.49987597,0.49987597 0 0 0 0,0.01 l 0.031,0.1133 a 0.49987597,0.49987597 0 0 0 0,0.012 c 8.9479,29.9054 5.7814,49.5146 6.8769,71.2969 l 0.8086,16.0703 v 0.01 c -7e-4,2.9342 -0.066,5.8096 -0.6504,7.3887 -0.293,0.7919 -0.6526,1.1968 -1.1465,1.3125 -0.4938,0.1156 -1.295,-0.062 -2.4648,-0.8418 a 0.49987597,0.49987597 0 0 0 -0.074,-0.041 l -21.2637,-9.4258 v 0 c -19.2179,-9.7798 -33.94138,-23.0947 -60.67189,-52.7949 h -0.004 c -0.0208,-0.024 -0.0421,-0.047 -0.0625,-0.07 -20.9015,-23.8874 -38.8535,-46.3199 -53.85938,-67.3281 h 0.002 c -0.0912,-0.128 -0.17932,-0.2584 -0.26172,-0.3926 -23.35255,-37.9478 -47.92071,-63.7127 -73.18359,-77.748 h -0.002 c -0.0667,-0.037 -0.13208,-0.076 -0.19726,-0.1153 h -0.002 c -13.62805,-8.1764 -30.09966,-12.3769 -49.89648,-12.3769 -33.49537,0 -57.17937,13.1125 -73.92774,40.7012 a 0.49987597,0.49987597 0 0 0 -0.0371,0.076 c -5.40029,13.7187 -8.16531,28.8332 -8.20313,45.5157 a 0.49987597,0.49987597 0 0 0 0.002,0.047 c 2.87744,30.7374 16.34632,53.5368 41.45118,70.2735 0.0456,0.03 0.0898,0.059 0.13085,0.088 28.36255,19.853 63.92167,29.9277 107.38086,29.9277 27.48295,0 59.16473,4.5604 95.18164,13.5644 0.0567,0.014 0.10415,0.025 0.14258,0.035 a 0.49987597,0.49987597 0 0 0 0.002,0 c 32.88668,8.9691 50.90658,18.6407 69.46098,27.9179 -0.062,-0.031 0.1413,0.083 0.3613,0.2168 0.22,0.1342 0.5202,0.3198 0.875,0.5391 0.7097,0.4386 1.6351,1.0126 2.5586,1.5879 0.9235,0.5753 1.845,1.1526 2.5528,1.5957 0.7077,0.443 1.2485,0.7835 1.2539,0.7871 l 6.0976,4.3164 a 0.49987597,0.49987597 0 0 0 0.012,0.01 c 2.0699,1.3804 3.5182,3.6654 3.9141,5.9082 0.3959,2.2428 -0.206,4.3888 -2.2266,5.7363 a 0.49987597,0.49987597 0 0 0 -0.033,0.024 l -7.7949,6.1328 c -18.1317,14.263 -45.82996,23.812 -81.83792,29.8437 -6.5e-4,1e-4 -10e-4,-10e-5 -0.002,0 l -0.27929,0.053 c -0.0154,0 -0.0295,0.01 -0.0449,0.01 h -0.01 a 0.49987597,0.49987597 0 0 0 -0.006,0.01 c -41.55125,8.8937 -71.23012,13.4382 -90.14063,13.4434 h -0.0371 -0.0176 a 0.49987597,0.49987597 0 0 0 -0.0254,0.027 c -43.46574,2.948 -77.86284,11.6739 -103.20899,25.6816 a 0.49987597,0.49987597 0 0 0 -0.0352,0.022 c -25.10703,16.8216 -40.1113,39.9815 -45.76757,70.8828 a 0.49987597,0.49987597 0 0 0 -0.002,0.02 c -2.77,19.5409 0.0184,35.4973 8.00391,48.8066 16.76675,27.9445 40.55074,41.1895 74.25586,41.1895 19.46888,0 37.29069,-5.4673 54.07422,-16.6563 0.23734,-0.1584 0.48524,-0.302 0.74023,-0.4297 21.8661,-10.9331 45.00142,-35.0811 68.33594,-72.9492 a 0.49987597,0.49987597 0 0 0 0.0117,0 l 0.0371,-0.061 c 12.2949,-21.5018 30.47835,-44.162 54.51367,-68.1973 0.0955,-0.095 0.19356,-0.1876 0.29492,-0.2774 26.71195,-23.7439 46.85745,-33.0359 64.82615,-48.0097 -0.034,0.029 0.027,-0.019 0.09,-0.064 0.063,-0.045 0.1522,-0.108 0.2618,-0.1855 0.219,-0.155 0.5216,-0.3675 0.8808,-0.6192 0.7184,-0.5033 1.6611,-1.1616 2.6035,-1.8183 0.9425,-0.6567 1.8846,-1.3136 2.6055,-1.8145 0.7209,-0.5009 1.2598,-0.8717 1.2676,-0.8769 a 0.49987597,0.49987597 0 0 0 0.01,-0.01 l 7.793,-5.416 h 0.01 c 1.2241,-0.816 2.259,-1.5163 3.1035,-2.0059 0.8464,-0.4907 1.5119,-0.7502 1.8906,-0.7636 0.1894,-0.01 0.2971,0.027 0.4004,0.1015 0.1033,0.075 0.2152,0.2123 0.3203,0.4727 0.2101,0.5203 0.3434,1.4948 0.3438,2.9394 0,10e-4 0,10e-4 0,0 l -0.2969,14.1308 c -0.5228,24.9105 -0.6332,50.7019 -12.5762,86.5958 a 0.49987597,0.49987597 0 0 0 -0.01,0.037 c -8.9894,35.8901 -19.486,64.5414 -31.8028,86.0957 v 0.01 a 0.49987597,0.49987597 0 0 0 0,0.01 c -20.37024,37.8744 -30.26368,70.9531 -30.26368,98.9942 0,22.0271 8.09442,42.5222 25.06248,62.3183 16.7024,19.4861 36.6432,28.7696 61.5723,28.7696 24.9288,0 44.8718,-9.2835 61.5742,-28.7696 16.9682,-19.7961 25.0605,-40.2913 25.0605,-62.3183 0,-27.8208 -11.3406,-64.0324 -34.7324,-107.9297 a 0.49987597,0.49987597 0 0 0 -0.035,-0.057 c -10.3201,-14.2469 -20.0397,-42.1061 -31.7832,-86.1386 -8.9919,-32.9699 -7.5022,-55.6099 -8.0371,-77.4687 l -0.3945,-16.1231 v 0 c 3e-4,-0.6953 0.089,-1.1986 0.2187,-1.5196 0.1294,-0.3213 0.2732,-0.4559 0.4512,-0.5351 0.3559,-0.1584 1.094,-0.032 2.0625,0.4551 1.9306,0.9699 4.5837,3.1238 7.0605,4.7773 l 6.084,4.5781 a 0.49987597,0.49987597 0 0 0 0.051,0.035 c 21.6138,12.4247 46.9899,25.6666 70.7832,52.3867 a 0.49987597,0.49987597 0 0 0 0.02,0.022 c 24.0398,24.0397 43.6623,48.164 58.8301,72.4238 0.01,0.014 0.02,0.029 0.029,0.043 v 0.01 a 0.49987597,0.49987597 0 0 0 0.014,0.01 c 23.3405,34.9736 46.5098,59.3937 68.9746,73.455 a 0.49987597,0.49987597 0 0 0 0.01,0 c 13.62,8.1602 30.0746,12.3575 49.8516,12.3575 36.8199,0 60.23,-13.1848 74.002,-40.7285 0.3308,-0.6615 0.766,-1.2642 1.289,-1.7872 7.0074,-7.0074 9.7399,-17.5606 6.9864,-34.082 -0.063,-0.3732 -0.095,-0.7498 -0.096,-1.1289 -2e-4,-33.4379 -14.7664,-60.5829 -45.9434,-83.334 a 0.49987597,0.49987597 0 0 0 -0.031,-0.02 c -22.1082,-13.7378 -56.4904,-22.572 -102.9492,-25.5234 a 0.49987597,0.49987597 0 0 0 -0.037,-0.023 h -0.018 c -0.013,0 -0.028,0 -0.041,0 -21.7069,-0.01 -50.199,-4.5701 -85.9844,-13.5039 a 0.49987597,0.49987597 0 0 0 -0.045,-0.01 c -38.8767,-6.0144 -64.241,-16.6762 -87.1054,-31.0918 l -6.6016,-4.1621 c -2.042,-1.3618 -3.2743,-3.7814 -3.4609,-6.1972 -0.1867,-2.4149 0.6507,-4.7725 2.6679,-6.1192 8e-4,-5e-4 0,0 0,0 l 7.1797,-4.0899 a 0.49987597,0.49987597 0 0 0 0.031,-0.019 c -0.059,0.04 0.2155,-0.1074 0.5469,-0.25 0.3314,-0.1426 0.7812,-0.3283 1.3086,-0.543 1.0548,-0.4293 2.4195,-0.9708 3.7871,-1.5078 1.3676,-0.5369 2.738,-1.0698 3.8047,-1.4805 1.0667,-0.4107 1.8744,-0.7152 1.9668,-0.746 17.9963,-5.9988 36.727,-16.47 75.3105,-28.3418 0.2929,-0.09 0.5918,-0.1598 0.8926,-0.209 35.6555,-5.9425 63.8956,-10.403 84.7676,-13.3847 0.3225,-0.046 0.6476,-0.068 0.9726,-0.068 40.3856,0 76.0414,-10.013 107.5645,-30.0547 a 0.49987597,0.49987597 0 0 0 0.01,-0.01 c 25.155,-16.7937 38.6276,-39.6724 41.4355,-70.5546 v 0 c 0.016,-0.1708 0.039,-0.3405 0.066,-0.5078 2.7336,-16.4022 0.086,-30.8049 -8.0196,-44.3145 -16.7667,-27.9447 -40.5527,-41.1894 -74.2578,-41.1894 -16.6209,0 -33.2801,4.1242 -50.2246,12.5742 a 0.49987597,0.49987597 0 0 0 -0.02,0.012 c -25.2107,14.0537 -49.7302,39.7806 -73.0371,77.6543 -0.043,0.07 -0.086,0.1394 -0.1328,0.209 -12.1688,18.253 -30.1434,40.6901 -54.0195,67.5507 -23.9492,26.9429 -39.4019,41.0455 -61.0332,53.4825 l -19.9043,8.5468 a 0.49987597,0.49987597 0 0 0 -0.08,0.043 c -1.1708,0.7804 -2.05,1.0183 -2.6641,0.9434 -0.614,-0.075 -1.0558,-0.429 -1.4453,-1.1231 -0.7781,-1.3868 -1.0791,-4.0567 -1.0801,-6.9707 v -0.01 c 0,-7e-4 0,0 0,0 l 0.252,-15.8594 c 0.3099,-19.4624 -0.082,-43.815 11.8535,-85.5918 v 0 c 0.012,-0.042 0.02,-0.067 0.023,-0.076 a 0.49987597,0.49987597 0 0 0 0,-0.01 c 9.0025,-30.0082 19.5262,-57.0947 31.6055,-81.2539 v 0 c 3e-4,-5e-4 -2e-4,0 0,0 0.03,-0.059 0.062,-0.1218 0.096,-0.1836 20.4323,-37.9458 30.3496,-71.077 30.3496,-99.1601 0,-22.2975 -6.7839,-41.2562 -20.6426,-57.9024 a 0.49987597,0.49987597 0 0 0 -0.01,-0.01 c -16.8966,-19.6955 -35.8963,-30.4486 -57.832,-33.2168 a 0.49987597,0.49987597 0 0 0 -0.014,0 c -3.4352,-0.3407 -6.7915,-0.5018 -10.0723,-0.4726 z m 0.01,1 c 3.2406,-0.029 6.5619,0.1315 9.9629,0.4687 0,10e-5 0,-1e-4 0,0 21.6826,2.7398 40.4163,13.3279 57.1856,32.875 13.7193,16.4815 20.4062,35.1635 20.4062,57.2559 0,27.8476 -9.8474,60.8367 -30.2285,98.6875 -0.036,0.067 -0.073,0.1352 -0.1094,0.207 -12.1099,24.2198 -22.6529,51.3574 -31.6699,81.4141 -0.014,0.045 -0.024,0.082 -0.029,0.1 -11.9664,41.8824 -11.5812,66.4155 -11.8907,85.8516 l -0.2539,15.8672 a 0.49987597,0.49987597 0 0 0 0,0.01 c 4e-4,2.9772 0.2312,5.7241 1.209,7.4668 0.4889,0.8714 1.231,1.5092 2.1953,1.627 0.9643,0.1177 2.0584,-0.2494 3.3399,-1.1036 l -0.08,0.043 19.9434,-8.5644 a 0.49987597,0.49987597 0 0 0 0.051,-0.025 c 21.7437,-12.4993 37.3138,-26.7145 61.295,-53.6934 23.8942,-26.8811 41.8944,-49.3437 54.1054,-67.6602 0.053,-0.08 0.1046,-0.1605 0.1543,-0.2421 v 0 c 23.2476,-37.7768 47.6712,-63.3657 72.6679,-77.3008 8e-4,-4e-4 0,0 0,0 16.8191,-8.3839 33.3092,-12.459 49.7578,-12.459 33.4447,0 56.7758,12.9972 73.4004,40.7051 7.9943,13.3238 10.5916,27.4286 7.8906,43.6347 -0.032,0.1934 -0.058,0.3868 -0.076,0.5801 -2.7856,30.6413 -16.0494,53.1611 -40.9942,69.8144 -31.36,19.9354 -66.8013,29.8926 -107.0176,29.8926 -0.3727,0 -0.745,0.028 -1.1132,0.08 -20.8852,2.9836 -49.1312,7.4454 -84.7911,13.3886 v 0 c -0.3466,0.057 -0.6889,0.1377 -1.0234,0.2402 -38.6546,11.8937 -57.472,22.3976 -75.334,28.3516 -0.2188,0.073 -0.9408,0.3482 -2.0098,0.7598 -1.069,0.4115 -2.4406,0.9445 -3.8105,1.4824 -1.3699,0.5378 -2.7371,1.0815 -3.7989,1.5136 -0.5308,0.2161 -0.9857,0.4035 -1.3281,0.5508 -0.3424,0.1474 -0.5093,0.2053 -0.7051,0.336 l -7.1816,4.0898 a 0.49987597,0.49987597 0 0 0 -0.029,0.02 c -2.3621,1.5753 -3.3199,4.3306 -3.1113,7.0293 0.2085,2.6988 1.5633,5.3933 3.9023,6.9532 a 0.49987597,0.49987597 0 0 0 0.01,0.01 l 6.6152,4.1699 c 22.9563,14.4735 48.4912,25.2004 87.4727,31.2325 0,6e-4 0.01,0 0.012,0 35.5746,8.879 63.9425,13.4397 85.7246,13.5039 a 0.49987597,0.49987597 0 0 0 0.01,0.01 c 0,3e-4 0.01,0 0.014,0 0.01,4e-4 0.012,-3e-4 0.018,0 46.5866,2.9148 80.9651,11.766 102.916,25.3985 30.9861,22.6154 45.5234,49.3768 45.5235,82.5176 4e-4,0.4336 0.037,0.8664 0.1093,1.2949 2.7249,16.3489 0.039,26.4648 -6.707,33.2109 -0.599,0.5989 -1.0976,1.2894 -1.4766,2.0469 -13.6272,27.2544 -36.5245,40.1758 -73.1074,40.1758 -19.6357,0 -35.8927,-4.1594 -49.3379,-12.2149 -22.3219,-13.9743 -45.4603,-38.3401 -68.789,-73.332 0,0 0,0 0,-0.01 a 0.49987597,0.49987597 0 0 0 -0.01,0 c -15.1978,-24.2775 -34.8254,-48.401 -58.8496,-72.4278 l -0.019,-0.021 c -23.9001,-26.8315 -49.4015,-40.1471 -70.9747,-52.5469 l -6.0703,-4.5664 a 0.49987597,0.49987597 0 0 0 -0.023,-0.018 c -2.4208,-1.6136 -5.0548,-3.784 -7.1875,-4.8555 -1.0664,-0.5357 -2.0542,-0.859 -2.918,-0.4746 -0.4319,0.1922 -0.7718,0.5775 -0.9726,1.0762 -0.2009,0.4987 -0.291,1.1175 -0.291,1.8945 a 0.49987597,0.49987597 0 0 0 0,0.012 l 0.3964,16.1368 c 0.5335,21.7963 -0.9595,44.5959 8.0703,77.705 11.7383,44.0127 21.4109,71.8912 31.9043,86.4102 23.3461,43.8124 34.6133,79.9073 34.6133,107.4551 0,21.7827 -7.9715,42.0111 -24.8203,61.6679 -16.5492,19.3075 -36.1327,28.42 -60.8144,28.42 -24.682,0 -44.2632,-9.1125 -60.8125,-28.42 -16.84872,-19.6568 -24.82231,-39.8852 -24.82231,-61.6679 0,-27.8464 9.84938,-60.8333 30.22851,-98.6817 3e-4,-5e-4 -3e-4,0 0,0 7e-4,0 0,0 0,0 a 0.49987597,0.49987597 0 0 0 0,-0.016 c 12.3363,-21.6446 22.8201,-50.2908 31.7968,-86.1211 11.9878,-36.0284 12.1044,-61.9917 12.627,-86.8907 l 0.2969,-14.1425 a 0.49987597,0.49987597 0 0 0 0,-0.01 c -2e-4,-1.501 -0.1093,-2.5548 -0.416,-3.3145 -0.1534,-0.3798 -0.3677,-0.6961 -0.6641,-0.9101 -0.2964,-0.214 -0.6619,-0.3038 -1.0215,-0.291 -0.7192,0.025 -1.4589,0.3786 -2.3555,0.8984 -0.8966,0.5198 -1.9396,1.2268 -3.164,2.043 a 0.49987597,0.49987597 0 0 0 -0.01,0.01 l -7.8008,5.4219 c -0.1053,0.07 -0.5585,0.3847 -1.2754,0.8828 -0.7214,0.5012 -1.6646,1.1575 -2.6074,1.8145 -0.9429,0.657 -1.8838,1.314 -2.6035,1.8183 -0.3599,0.2522 -0.6654,0.4665 -0.8868,0.6231 -0.1106,0.078 -0.1989,0.1434 -0.2656,0.1914 -0.067,0.048 -0.087,0.058 -0.1465,0.1074 -17.8421,14.8684 -38.04996,24.2076 -64.85154,48.0313 -0.11464,0.1016 -0.22704,0.2061 -0.33594,0.3144 a 0.49987597,0.49987597 0 0 0 -0.002,0 c -24.01555,24.0155 -42.21056,46.6778 -54.56445,68.2343 a 0.49987597,0.49987597 0 0 0 -0.0117,0.01 c -7.9e-4,0 -0.001,0 -0.002,0 -23.32307,37.8991 -46.42923,61.9636 -68.06054,72.7793 -0.29225,0.1463 -0.57598,0.3108 -0.84766,0.4922 -16.63706,11.0914 -34.23749,16.4883 -53.51953,16.4883 -33.44467,0 -56.7738,-12.9975 -73.39844,-40.7051 -7.85673,-13.0946 -10.61649,-28.7742 -7.87109,-48.1465 1.9e-4,0 -1.9e-4,0 0,0 5.61713,-30.6622 20.42655,-53.5139 45.3164,-70.1973 25.25667,-13.9538 59.6572,-22.685 103.24414,-25.5937 0.005,-4e-4 0.0103,3e-4 0.0156,0 0.005,-3e-4 0.009,0 0.0137,0 a 0.49987597,0.49987597 0 0 0 0.0137,-0.01 c 19.12821,-0.074 48.70353,-4.6235 90.10938,-13.4941 0.0195,0 0.0352,-0.01 0.0547,-0.01 v 0 c 0.005,0 0.009,-10e-4 0.0137,0 36.07996,-6.0465 63.91557,-15.609 82.25977,-30.0391 l 7.7656,-6.1093 c 2.3604,-1.5742 3.1037,-4.2076 2.6563,-6.7422 -0.4475,-2.5347 -2.0326,-5.0252 -4.3438,-6.5664 l -6.0976,-4.3164 a 0.49987597,0.49987597 0 0 0 -0.012,-0.01 c -0.1219,-0.081 -0.5688,-0.3611 -1.2773,-0.8047 -0.7085,-0.4435 -1.6325,-1.02 -2.5566,-1.5957 -0.9241,-0.5757 -1.8491,-1.1501 -2.5606,-1.5898 -0.3557,-0.2199 -0.6578,-0.4069 -0.8808,-0.543 -0.2231,-0.1361 -0.3034,-0.1907 -0.4336,-0.2559 -18.5374,-9.2687 -36.6712,-18.9974 -69.64457,-27.9902 -0.0628,-0.017 -0.11505,-0.03 -0.16016,-0.041 a 0.49987597,0.49987597 0 0 0 -0.004,0 c -36.07446,-9.0186 -67.83179,-13.5957 -95.42579,-13.5957 -43.30592,0 -78.63703,-10.0279 -106.80859,-29.7481 -0.0507,-0.035 -0.10085,-0.068 -0.14844,-0.1 -24.88826,-16.5922 -38.14666,-39.0273 -41.00586,-69.5117 0.0403,-16.5462 2.77955,-31.5081 8.11719,-45.084 16.60365,-27.328 39.82747,-40.1855 73.04883,-40.1855 19.65626,0 35.93149,4.1624 49.38476,12.2344 0.0745,0.044 0.149,0.088 0.22461,0.1308 a 0.49987597,0.49987597 0 0 0 0.002,0 c 25.04975,13.9165 49.52359,39.5445 72.81836,77.3985 0.0942,0.1534 0.19427,0.3024 0.29882,0.4492 15.0294,21.0411 33.00097,43.4989 53.91993,67.4062 h -0.002 c 0.0236,0.027 0.0483,0.053 0.0723,0.08 a 0.49987597,0.49987597 0 0 0 0.002,0 c 26.75774,29.7308 41.60481,43.1682 60.96881,53.0215 a 0.49987597,0.49987597 0 0 0 0.023,0.012 l 21.2871,9.4375 -0.074,-0.041 c 1.2826,0.8549 2.3376,1.1956 3.248,0.9824 0.9105,-0.2132 1.5022,-0.9824 1.8555,-1.9375 0.7067,-1.9101 0.7106,-4.8108 0.7109,-7.7617 a 0.49987597,0.49987597 0 0 0 0,-0.023 l -0.8085,-16.0782 c -1.089,-21.6521 2.0823,-41.4479 -6.9141,-71.5234 v -0.012 l -0.025,-0.092 v -0.01 c -6.1103,-24.3976 -16.6543,-52.937 -31.6074,-85.834 v 0 c -0.041,-0.093 -0.083,-0.1799 -0.1231,-0.2617 -23.48491,-46.9698 -34.79303,-83.4248 -34.79303,-107.8027 0,-21.7684 7.96509,-41.9862 24.79103,-61.6309 v 0 c 17.0164,-19.4354 36.0496,-28.7626 58.916,-28.9648 z"
           id="path13" />
      </g>
    </g>
  </g>
</svg>
